<?xml version="1.0" encoding="UTF-8"?>
<svg viewBox="0 0 1062.98755 708.661377" xmlns="http://www.w3.org/2000/svg">
 <path d="m481.89-2.1e-4h581.1v70.866h-581.1z" fill-rule="evenodd"/>
 <path d="m481.89 159.45h581.1v70.866h-581.1z" fill-rule="evenodd"/>
 <path d="m-1e-6 318.9h1063v70.866h-1063z" fill-rule="evenodd"/>
 <path d="m0 478.35h1063v70.866h-1063z" fill-rule="evenodd"/>
 <path d="m0 637.8h1063v70.866h-1063z" fill-rule="evenodd"/>
 <path d="m481.89 70.866h581.1v88.583h-581.1z" fill="#fff" fill-rule="evenodd"/>
 <path d="m481.89 230.31h581.1v88.583h-581.1z" fill="#fff" fill-rule="evenodd"/>
 <path d="m0 389.76h1063v88.583h-1063z" fill="#fff" fill-rule="evenodd"/>
 <path d="m0 549.21h1063v88.583h-1063z" fill="#fff" fill-rule="evenodd"/>
 <path d="m0-1e-4h481.89v318.9h-481.89z" fill="#fff" fill-rule="evenodd"/>
 <g fill-rule="evenodd" font-size="12">
  <g transform="translate(-63.779 -77.953)">
   <path d="m425.2 212.6 10.63-7.086 17.716 7.086-17.716 7.087-10.63-7.087z"/>
   <path d="m425.2 212.6-10.63 7.086-17.716-7.086 17.716-7.087 10.63 7.087z"/>
   <path d="m425.2 212.6-7.086-10.63 7.086-17.716 7.087 17.716-7.087 10.63z"/>
   <path d="m425.2 294.09-7.087-14.173-24.803 10.63 31.89-77.953 31.89 77.953-24.804-10.63-7.086 14.173z"/>
  </g>
  <g transform="translate(-3.5432 17.717)">
   <path d="m425.2 212.6 10.63-7.086 17.716 7.086-17.716 7.087-10.63-7.087z"/>
   <path d="m425.2 212.6-10.63 7.086-17.716-7.086 17.716-7.087 10.63 7.087z"/>
   <path d="m425.2 212.6-7.086-10.63 7.086-17.716 7.087 17.716-7.087 10.63z"/>
   <path d="m425.2 294.09-7.087-14.173-24.803 10.63 31.89-77.953 31.89 77.953-24.804-10.63-7.086 14.173z"/>
  </g>
  <g transform="translate(-124.02 17.716)">
   <path d="m425.2 212.6 10.63-7.086 17.716 7.086-17.716 7.087-10.63-7.087z"/>
   <path d="m425.2 212.6-10.63 7.086-17.716-7.086 17.716-7.087 10.63 7.087z"/>
   <path d="m425.2 212.6-7.086-10.63 7.086-17.716 7.087 17.716-7.087 10.63z"/>
   <path d="m425.2 294.09-7.087-14.173-24.803 10.63 31.89-77.953 31.89 77.953-24.804-10.63-7.086 14.173z"/>
  </g>
  <g transform="translate(-3.5437 -180.71)">
   <path d="m425.2 212.6 10.63-7.086 17.716 7.086-17.716 7.087-10.63-7.087z"/>
   <path d="m425.2 212.6-10.63 7.086-17.716-7.086 17.716-7.087 10.63 7.087z"/>
   <path d="m425.2 212.6-7.086-10.63 7.086-17.716 7.087 17.716-7.087 10.63z"/>
   <path d="m425.2 294.09-7.087-14.173-24.803 10.63 31.89-77.953 31.89 77.953-24.804-10.63-7.086 14.173z"/>
  </g>
  <g transform="translate(-120.47 -178.84)">
   <path d="m425.2 212.6 10.63-7.086 17.716 7.086-17.716 7.087-10.63-7.087z"/>
   <path d="m425.2 212.6-10.63 7.086-17.716-7.086 17.716-7.087 10.63 7.087z"/>
   <path d="m425.2 212.6-7.086-10.63 7.086-17.716 7.087 17.716-7.087 10.63z"/>
   <path d="m425.2 294.09-7.087-14.173-24.803 10.63 31.89-77.953 31.89 77.953-24.804-10.63-7.086 14.173z"/>
  </g>
  <g transform="translate(-184.25 -77.953)">
   <path d="m425.2 212.6 10.63-7.086 17.716 7.086-17.716 7.087-10.63-7.087z"/>
   <path d="m425.2 212.6-10.63 7.086-17.716-7.086 17.716-7.087 10.63 7.087z"/>
   <path d="m425.2 212.6-7.086-10.63 7.086-17.716 7.087 17.716-7.087 10.63z"/>
   <path d="m425.2 294.09-7.087-14.173-24.803 10.63 31.89-77.953 31.89 77.953-24.804-10.63-7.086 14.173z"/>
  </g>
  <g transform="translate(-244.49 -180.71)">
   <path d="m425.2 212.6 10.63-7.086 17.716 7.086-17.716 7.087-10.63-7.087z"/>
   <path d="m425.2 212.6-10.63 7.086-17.716-7.086 17.716-7.087 10.63 7.087z"/>
   <path d="m425.2 212.6-7.086-10.63 7.086-17.716 7.087 17.716-7.087 10.63z"/>
   <path d="m425.2 294.09-7.087-14.173-24.803 10.63 31.89-77.953 31.89 77.953-24.804-10.63-7.086 14.173z"/>
  </g>
  <g transform="translate(-244.49 17.716)">
   <path d="m425.2 212.6 10.63-7.086 17.716 7.086-17.716 7.087-10.63-7.087z"/>
   <path d="m425.2 212.6-10.63 7.086-17.716-7.086 17.716-7.087 10.63 7.087z"/>
   <path d="m425.2 212.6-7.086-10.63 7.086-17.716 7.087 17.716-7.087 10.63z"/>
   <path d="m425.2 294.09-7.087-14.173-24.803 10.63 31.89-77.953 31.89 77.953-24.804-10.63-7.086 14.173z"/>
  </g>
  <g transform="translate(-304.72 -77.952)">
   <path d="m425.2 212.6 10.63-7.086 17.716 7.086-17.716 7.087-10.63-7.087z"/>
   <path d="m425.2 212.6-10.63 7.086-17.716-7.086 17.716-7.087 10.63 7.087z"/>
   <path d="m425.2 212.6-7.086-10.63 7.086-17.716 7.087 17.716-7.087 10.63z"/>
   <path d="m425.2 294.09-7.087-14.173-24.803 10.63 31.89-77.953 31.89 77.953-24.804-10.63-7.086 14.173z"/>
  </g>
  <g transform="translate(-364.96 -180.71)">
   <path d="m425.2 212.6 10.63-7.086 17.716 7.086-17.716 7.087-10.63-7.087z"/>
   <path d="m425.2 212.6-10.63 7.086-17.716-7.086 17.716-7.087 10.63 7.087z"/>
   <path d="m425.2 212.6-7.086-10.63 7.086-17.716 7.087 17.716-7.087 10.63z"/>
   <path d="m425.2 294.09-7.087-14.173-24.803 10.63 31.89-77.953 31.89 77.953-24.804-10.63-7.086 14.173z"/>
  </g>
  <g transform="translate(-364.96 17.716)">
   <path d="m425.2 212.6 10.63-7.086 17.716 7.086-17.716 7.087-10.63-7.087z"/>
   <path d="m425.2 212.6-10.63 7.086-17.716-7.086 17.716-7.087 10.63 7.087z"/>
   <path d="m425.2 212.6-7.086-10.63 7.086-17.716 7.087 17.716-7.087 10.63z"/>
   <path d="m425.2 294.09-7.087-14.173-24.803 10.63 31.89-77.953 31.89 77.953-24.804-10.63-7.086 14.173z"/>
  </g>
 </g>
</svg>
